# xmcd
#
# Track frame offsets: 
#        150
#        10464
#        25037
#        39003
#        50832
#        63453
#        76037
#        89399
#        103359
#        115204
#        129185
#        142105
#        155879
#        170329
#        183281
#        194906
#        205949
#        217217
#        229743
#        240866
#
# Disc length: 3378 seconds
#
# Revision: 0
# Processed by: cddbd v1.5.2PL0 Copyright (c) Steve Scherf et al.
# Submitted via: ExactAudioCopyFreeDBPlugin 1.0
#
DISCID=1b0d3014
DTITLE=Freddy King - Texas Oil - The Complete Federal and El-Bee Sides
DYEAR=2016
DGENRE=Blues
TTITLE0=See See Baby
TTITLE1=You`ve Got To Love Her With A Feeling
TTITLE2=Have You Ever Loved A Woman
TTITLE3=Hide Away
TTITLE4=I Love The Woman
TTITLE5=Lonesome Whistle Blues
TTITLE6=If You Believe
TTITLE7=It`s Too Bad
TTITLE8=I`m Tore Down
TTITLE9=Butterscotch (Onion Rings)
TTITLE10=Sen-Sa-Shun
TTITLE11=Side Tracked
TTITLE12=The Stumble
TTITLE13=San-Ho-Zay
TTITLE14=Wash Out
TTITLE15=You Know That You Love Me
TTITLE16=Heads Up
TTITLE17=Christmas Tears
TTITLE18=Let Me Be
TTITLE19=Takin` Care Of Business
EXTD=
EXTT0=
EXTT1=
EXTT2=
EXTT3=
EXTT4=
EXTT5=
EXTT6=
EXTT7=
EXTT8=
EXTT9=
EXTT10=
EXTT11=
EXTT12=
EXTT13=
EXTT14=
EXTT15=
EXTT16=
EXTT17=
EXTT18=
EXTT19=
PLAYORDER=
